# xmcd
#
# Track frame offsets: 
#        150
#        12904
#        25920
#        38532
#        53117
#        64763
#        74709
#        86695
#        99406
#        112914
#        122846
#        136518
#        147844
#        158680
#        168332
#        181409
#        192178
#        200996
#        212178
#        224488
#
# Disc length: 3104 seconds
#
# Revision: 0
# Processed by: cddbd v1.5.2PL0 Copyright (c) Steve Scherf et al.
# Submitted via: ExactAudioCopy v0.99pb5
#
DISCID=210c1e14
DTITLE=Various Artist - Country and Western Hits And Rarities CD07
DYEAR=1900
DGENRE=
TTITLE0=Jim Reeves - Four Walls
TTITLE1=Marty Robbins - The Hanging Tree
TTITLE2=Buck Owens - Under Your Spell Again
TTITLE3=Johnny Horton - Sing The Bismarck
TTITLE4=Johnny Grammer - Gotta Travel On
TTITLE5=Don Gibson - What About Me
TTITLE6=Lefty Frizzell - Cigarettes And Coffee Blues
TTITLE7=Hank Snow - The Golden Rocket
TTITLE8=Jerry Lee Lewis - You Win Again
TTITLE9=Johnny Cash - Rock Island Line
TTITLE10=Ray Price - Heartaches By The Number
TTITLE11=Jim Reeves - Penny Candy
TTITLE12=Rusty and Doug - Hey Sheriff
TTITLE13=Webb Pierce - Tupelo County Jail
TTITLE14=The Browns - The Three Bells
TTITLE15=Johnny Horton - The Sinking Of The Reuben James
TTITLE16=Don Gibson - Sweet Dreams
TTITLE17=Carl Belew - Am I That Easy To Forget
TTITLE18=Carl Smith - Cut Across Shorty
TTITLE19=Johnny Cash - Wreck Of The Old '97
EXTD=
EXTT0=
EXTT1=
EXTT2=
EXTT3=
EXTT4=
EXTT5=
EXTT6=
EXTT7=
EXTT8=
EXTT9=
EXTT10=
EXTT11=
EXTT12=
EXTT13=
EXTT14=
EXTT15=
EXTT16=
EXTT17=
EXTT18=
EXTT19=
PLAYORDER=
